HIERARCHY
ROOT Hips
{
	OFFSET 0.000000 0.000000 0.000000
	CHANNELS 6 Xposition Yposition Zposition Xrotation Yrotation Zrotation
	JOINT ToSpine
	{
		OFFSET -0.010505 1.389070 -7.139560
		CHANNELS 3 Xrotation Yrotation Zrotation
		JOINT Spine
		{
			OFFSET 0.010505 10.000000 1.000000
			CHANNELS 3 Xrotation Yrotation Zrotation
			JOINT Spine1
			{
				OFFSET 0.000000 12.000000 1.606370
				CHANNELS 3 Xrotation Yrotation Zrotation
				JOINT Neck
				{
					OFFSET 0.000000 27.000000 2.266580
					CHANNELS 3 Xrotation Yrotation Zrotation
					JOINT Head
					{
						OFFSET 0.000000 9.000000 2.127050
						CHANNELS 3 Xrotation Yrotation Zrotation
						End Site
						{
							OFFSET 0.000000 11.000000 2.000000
						}
					}
				}
				JOINT LeftShoulder
				{
					OFFSET 8.000000 19.610900 2.864520
					CHANNELS 3 Xrotation Yrotation Zrotation
					JOINT LeftArm
					{
						OFFSET 12.000000 1.000000 0.681055
						CHANNELS 3 Xrotation Yrotation Zrotation
						JOINT LeftForeArm
						{
							OFFSET 19.000000 0.000000 -1.526080
							CHANNELS 3 Xrotation Yrotation Zrotation
							JOINT LeftHand
							{
								OFFSET 23.000000 0.000000 0.000000
								CHANNELS 3 Xrotation Yrotation Zrotation
								End Site
								{
									OFFSET 10.000000 0.000000 0.000000
								}
							}
						}
					}
				}
				JOINT RightShoulder
				{
					OFFSET -8.000000 19.610900 2.864520
					CHANNELS 3 Xrotation Yrotation Zrotation
					JOINT RightArm
					{
						OFFSET -12.000000 1.000000 0.681055
						CHANNELS 3 Xrotation Yrotation Zrotation
						JOINT RightForeArm
						{
							OFFSET -19.000000 0.000000 -1.526080
							CHANNELS 3 Xrotation Yrotation Zrotation
							JOINT RightHand
							{
								OFFSET -23.000000 0.000000 0.000000
								CHANNELS 3 Xrotation Yrotation Zrotation
								End Site
								{
									OFFSET -10.000000 0.000000 0.000000
								}
							}
						}
					}
				}
			}
		}
	}
	JOINT LeftUpLeg
	{
		OFFSET 9.000000 -7.172450 0.000000
		CHANNELS 3 Xrotation Yrotation Zrotation
		JOINT LeftLeg
		{
			OFFSET 0.000000 -44.111300 0.000000
			CHANNELS 3 Xrotation Yrotation Zrotation
			JOINT LeftFoot
			{
				OFFSET 0.000000 -36.182900 0.000000
				CHANNELS 3 Xrotation Yrotation Zrotation
				JOINT LeftToeBase
				{
					OFFSET 0.000000 -4.841840 13.000000
					CHANNELS 3 Xrotation Yrotation Zrotation
					End Site
					{
						OFFSET 0.000000 1.000000 6.000000
					}
				}
			}
		}
	}
	JOINT RightUpLeg
	{
		OFFSET -9.000000 -7.172450 0.000000
		CHANNELS 3 Xrotation Yrotation Zrotation
		JOINT RightLeg
		{
			OFFSET 0.000000 -44.055100 0.000000
			CHANNELS 3 Xrotation Yrotation Zrotation
			JOINT RightFoot
			{
				OFFSET 0.000000 -36.146900 0.000000
				CHANNELS 3 Xrotation Yrotation Zrotation
				JOINT RightToeBase
				{
					OFFSET 0.000000 -4.922560 13.000000
					CHANNELS 3 Xrotation Yrotation Zrotation
					End Site
					{
						OFFSET 0.000000 1.000000 6.000000
					}
				}
			}
		}
	}
}
MOTION
Frames: 5
Frame Time: 0.033333
32.714000 39.875500 0.907920 13.661224 1.376062 -0.702789 0.000000 0.000000 0.000000 57.683755 4.378230 4.626095 -9.119621 3.725969 -4.261331 -33.933398 -1.699252 5.499040 6.134370 2.195804 -2.892716 0.889689 -18.785601 -7.461638 -81.259163 -69.815583 -66.691048 -24.836083 6.190043 -2.438986 -0.853519 -3.778936 -25.421606 -0.189716 24.683395 13.773981 -15.504509 55.762802 -4.043754 -33.137453 -4.653826 2.934569 -0.830063 5.155841 18.271466 -103.974037 13.243503 37.100983 140.469823 -31.723364 -0.000907 -43.630308 -13.305667 32.492233 10.314445 -3.950694 0.649923 -101.309627 -23.352389 -32.166062 140.123297 5.047077 0.002311 -52.855615 15.715303 -31.036368 -8.369586 -1.905694 2.307467 
32.641400 39.392300 1.120860 12.886021 1.472080 -0.702132 0.000000 0.000000 0.000000 57.266778 4.255600 4.564037 -9.458278 3.609224 -4.069399 -33.660353 -1.930147 5.646369 5.915194 2.108647 -3.130527 0.803805 -18.736313 -8.082332 -79.361293 -69.336281 -66.069662 -25.173109 6.324180 -2.653381 -0.844367 -3.649920 -26.044860 -0.269016 24.982957 14.123125 -14.156229 55.260071 -4.321719 -33.633617 -4.731410 3.188021 -0.804699 4.870209 18.756132 -103.149414 12.862356 36.978245 141.370700 -31.963000 0.000000 -44.450100 -13.660189 32.675346 11.059948 -3.600810 0.504978 -100.710430 -23.360503 -32.448591 141.171372 5.311627 -0.000782 -53.817394 15.781327 -30.549297 -7.712461 -0.980278 2.082735 
32.726200 39.414600 1.286030 12.859985 1.168436 -0.731636 0.000000 0.000000 0.000000 56.389893 4.337871 4.648788 -9.481690 3.688788 -4.351657 -34.283009 -1.875878 5.067655 5.996794 1.738370 -2.483544 0.691515 -18.363061 -8.900182 -79.016337 -68.984882 -66.466965 -23.975400 6.294148 -2.842957 -0.854410 -3.701154 -25.989358 -0.195906 25.082139 13.726049 -15.428985 54.809760 -2.519653 -32.666666 -4.380886 3.190352 -0.780532 4.848823 18.275970 -102.756438 12.899715 37.167049 141.479300 -31.978000 0.000000 -45.048834 -13.944430 32.858432 11.410641 -3.853943 0.583871 -100.448711 -23.396673 -32.205039 141.137666 4.900745 0.001563 -53.534602 15.891521 -30.934882 -8.128534 -0.563767 2.160584 
32.749700 40.191100 1.228470 13.709906 1.071089 -0.601152 0.000000 0.000000 0.000000 55.482803 4.223515 4.886087 -9.955345 3.664565 -5.021314 -35.372576 -2.163917 5.498811 6.306773 1.874569 -2.993642 0.746143 -18.195208 -8.468918 -78.009919 -68.256031 -66.106936 -24.716096 6.309313 -2.716811 -0.841311 -3.673235 -25.793405 -0.227258 24.866755 13.931930 -14.653859 55.309752 -2.577389 -34.396761 -4.798539 3.246476 -0.780090 4.774671 18.545027 -103.122899 13.448200 37.175014 140.217689 -31.475080 -0.002703 -44.179933 -13.787629 33.179256 9.830867 -4.331276 0.788944 -100.829742 -23.469390 -32.186673 139.802533 4.962291 -0.001533 -52.171222 15.900123 -31.833473 -9.586315 -1.013534 2.560241 
32.605000 41.694600 0.921474 15.558796 1.044134 -0.390988 0.000000 0.000000 0.000000 54.421886 4.037052 4.935065 -10.983848 3.816503 -5.509522 -35.837510 -2.178048 5.406292 6.287743 1.831782 -3.000799 0.669424 -18.340449 -9.060285 -74.845785 -69.148729 -63.380274 -25.523473 6.546097 -3.038001 -0.836293 -3.660729 -25.730002 -0.264307 24.901370 14.116631 -14.530517 55.315356 -2.393180 -34.086124 -5.092522 3.163611 -0.838088 5.178063 18.376548 -104.072379 14.063136 36.696780 137.548332 -31.175375 0.004312 -42.841074 -13.021345 32.440453 9.737970 -4.054456 0.700800 -102.111487 -23.634005 -32.120322 137.112400 5.853722 -0.002946 -49.287751 15.447164 -32.945682 -10.716306 -2.657753 2.909274 
